<svg t="1563524457578" class="icon" viewBox="0 0 1024 1024" version="1.1" xmlns="http://www.w3.org/2000/svg" p-id="2395" width="16" height="16"><path d="M508.6 64.1c-246.2 0-447.7 201.5-447.7 447.7s201.5 447.7 447.7 447.7S956.3 758 956.3 511.8 754.8 64.1 508.6 64.1m0 839.5c-218.3 0-391.8-173.5-391.8-391.8S290.3 120 508.6 120s391.8 173.5 391.8 391.8c-0.1 218.3-173.6 391.8-391.8 391.8" p-id="2396"></path><path d="M503 679.7c-16.8 0-28 5.6-39.2 16.8-11.2 11.2-16.8 22.4-16.8 39.2 0 16.8 5.6 28 16.8 39.2 11.2 11.2 22.4 16.8 39.2 16.8 16.8 0 28-5.6 39.2-16.8 11.2-11.2 16.8-22.4 16.8-39.2 0-16.8-5.6-28-16.8-39.2-11.2-11.2-22.4-16.8-39.2-16.8z m16.8-458.9c-56 0-100.7 16.8-134.3 50.4-39.2 33.6-56 78.4-56 134.3h83.9c0-33.6 5.6-61.6 22.4-78.3 16.8-22.4 39.2-33.6 78.4-33.6 28 0 50.4 5.6 67.2 22.4 16.8 16.8 22.4 39.2 22.4 61.6s-5.6 39.2-22.4 56l-16.8 16.8C519.8 495 486.2 528.6 475 551c-11.2 16.8-11.2 44.8-11.2 72.8V635h83.9v-11.2c0-16.8 5.6-33.6 11.2-50.4 5.6-16.8 16.8-28 33.6-39.2 39.2-33.6 61.6-50.4 67.2-61.6 22.4-22.4 28-56 28-95.1 0-44.8-16.8-84-44.8-111.9-33.6-33.6-72.8-44.8-123.1-44.8z m0 0"  p-id="2397"></path></svg>
