<?xml version="1.0" standalone="no"?><!DOCTYPE svg PUBLIC "-//W3C//DTD SVG 1.1//EN" "http://www.w3.org/Graphics/SVG/1.1/DTD/svg11.dtd"><svg t="1563951283655" class="icon" viewBox="0 0 1026 1024" version="1.1" xmlns="http://www.w3.org/2000/svg" p-id="1987" width="32.0625" height="32" xmlns:xlink="http://www.w3.org/1999/xlink"><defs><style type="text/css"></style></defs><path d="M983.835253 313.365707a511.93705 511.93705 0 1 0 40.120847 198.662243 508.618063 508.618063 0 0 0-40.120847-198.662243z m-58.751776 372.474581a448.141293 448.141293 0 1 1 35.077866-173.812338 445.131305 445.131305 0 0 1-35.077866 173.812338z" p-id="1988"></path><path d="M577.389801 384.437436H431.108358l73.134722-73.135722a31.897879 31.897879 0 0 0-45.104829-45.104828L331.548737 393.7864q-0.557998 0.559998-1.086996 1.146996l-0.477998 0.547998-0.537998 0.627997c-0.199999 0.239999-0.389999 0.488998-0.577998 0.727998l-0.379998 0.488998c-0.198999 0.268999-0.387999 0.547998-0.586998 0.816997l-0.309999 0.447998c-0.188999 0.289999-0.367999 0.578998-0.557998 0.867997l-0.278998 0.447998c-0.169999 0.289999-0.338999 0.577998-0.497999 0.866997l-0.279999 0.498998c-0.148999 0.268999-0.287999 0.547998-0.417998 0.826997l-0.288999 0.587997c-0.12 0.249999-0.229999 0.508998-0.338999 0.757997l-0.298998 0.687998c-0.099 0.229999-0.179999 0.447998-0.268999 0.677997s-0.209999 0.527998-0.299999 0.806997-0.138999 0.398998-0.197999 0.597998-0.199999 0.597998-0.289999 0.896996-0.1 0.358999-0.149 0.527998-0.179999 0.647998-0.269999 0.996997c0 0.169999-0.079 0.329999-0.118999 0.498998-0.08 0.338999-0.159999 0.676997-0.219999 0.995996 0 0.169999-0.059 0.339999-0.089 0.508998-0.06 0.338999-0.12 0.677997-0.169999 0.996996s0 0.387999-0.069 0.577998-0.08 0.637998-0.11 0.996996 0 0.517998-0.06 0.776997 0 0.517998-0.059999 0.777997v3.149988c0 0.258999 0 0.517998 0.059999 0.776997s0 0.517998 0.06 0.776997 0.07 0.637998 0.11 0.996997 0 0.389999 0.07 0.577997 0.11 0.677997 0.169999 0.996997c0 0.169999 0.059 0.339999 0.089 0.508998 0.07 0.338999 0.149999 0.676997 0.219999 0.995996 0 0.169999 0.069 0.329999 0.118999 0.498998 0.08 0.328999 0.169999 0.657997 0.268999 0.996996s0.1 0.357999 0.15 0.527998 0.188999 0.597998 0.288999 0.896997 0.13 0.398998 0.198999 0.597997 0.199999 0.537998 0.298999 0.807997 0.169999 0.447998 0.269999 0.676998l0.297998 0.687997c0.1 0.229999 0.229999 0.508998 0.339999 0.757997l0.287999 0.587998c0.139999 0.278999 0.279999 0.547998 0.418998 0.826997l0.278999 0.498998c0.159999 0.288999 0.328999 0.577998 0.497999 0.866997l0.279998 0.447998c0.178999 0.289999 0.357999 0.578998 0.557998 0.867997l0.308999 0.447998c0.188999 0.279999 0.377999 0.547998 0.587998 0.817997l0.378998 0.487998c0.188999 0.249999 0.377999 0.487998 0.577998 0.727997l0.537998 0.627998 0.477998 0.547998q0.528998 0.587998 1.086996 1.145995l127.589514 127.590514a31.897879 31.897879 0 0 0 45.105829-45.114828l-73.124722-73.145721h146.269443a127.590514 127.590514 0 0 1 0 255.181028H417.902408a31.897879 31.897879 0 0 0 0 63.795757h159.488393c105.530598 0 191.385271-85.854673 191.385271-191.386271s-85.854673-191.385271-191.385271-191.385271z" p-id="1989"></path></svg>
