<?xml version="1.0" standalone="no"?><!DOCTYPE svg PUBLIC "-//W3C//DTD SVG 1.1//EN" "http://www.w3.org/Graphics/SVG/1.1/DTD/svg11.dtd"><svg t="1584004924594" class="icon" viewBox="0 0 1025 1024" version="1.1" xmlns="http://www.w3.org/2000/svg" p-id="5554" width="48.046875" height="48" xmlns:xlink="http://www.w3.org/1999/xlink"><defs><style type="text/css"></style></defs><path d="M277.709087 368.4352c0 165.0688 133.9392 299.008 299.008 299.008s299.008-133.9392 299.008-299.008-133.9392-299.008-299.008-299.008-299.008 133.9392-299.008 299.008z m-100.1472 78.2336C75.571487 472.2688 0.205087 564.4288 0.000287 674.2016c-0.2048 127.7952 106.0864 234.7008 233.6768 235.52 104.0384 0.6144 192.3072-66.3552 224.0512-159.3344 7.7824-23.1424-3.8912-48.3328-26.8288-56.9344-95.8464-36.0448-170.3936-116.1216-198.656-215.4496-6.5536-23.7568-30.9248-37.4784-54.6816-31.3344zM72.909087 128.4096c0 52.6336 42.5984 95.232 95.232 95.232S263.373087 181.0432 263.373087 128.4096s-42.5984-95.232-95.232-95.232S72.909087 75.776 72.909087 128.4096z m787.8656 534.528c-91.9552-0.8192-166.7072 73.9328-166.0928 166.0928 0.8192 89.7024 73.5232 162.4064 163.0208 163.0208 91.9552 0.8192 166.7072-73.9328 166.0928-166.0928-0.6144-89.4976-73.3184-162.2016-163.0208-163.0208z m0 0" p-id="5555"></path></svg>