<?xml version="1.0" standalone="no"?><!DOCTYPE svg PUBLIC "-//W3C//DTD SVG 1.1//EN" "http://www.w3.org/Graphics/SVG/1.1/DTD/svg11.dtd"><svg class="icon" width="200px" height="200.00px" viewBox="0 0 1024 1024" version="1.1" xmlns="http://www.w3.org/2000/svg"><path fill="#8a8a8a" d="M511.488347 64.46829c-246.973928 0-447.184809 200.210881-447.184809 447.184809 0 246.971881 200.210881 447.184809 447.184809 447.184809s447.184809-200.212928 447.184809-447.184809C958.673156 264.679172 758.462275 64.46829 511.488347 64.46829zM735.283366 536.49488 536.332175 536.49488l0 198.953238c0 13.607926-11.027148 24.639167-24.844851 24.639167-13.719466 0-24.844851-11.310603-24.844851-24.639167L486.642472 536.49488 287.691281 536.49488c-13.605879 0-24.639167-11.027148-24.639167-24.841781 0-13.722536 11.310603-24.844851 24.639167-24.844851l198.953238 0L486.644519 287.856034c0-13.607926 11.027148-24.639167 24.844851-24.639167 13.719466 0 24.844851 11.310603 24.844851 24.639167l0 198.953238 198.950168 0c13.610996 0 24.642237 11.027148 24.642237 24.844851C759.924579 525.372565 748.613976 536.49488 735.283366 536.49488z" /></svg>
