<svg t="1572315677156" class="icon" viewBox="0 0 1024 1024" version="1.1" xmlns="http://www.w3.org/2000/svg" p-id="3095" width="200" height="200"><path d="M926.647887 126.197183h-288.450704c0-72.112676-57.690141-126.197183-126.197183-126.197183s-126.197183 57.690141-126.197183 126.197183h-288.450704c-18.028169 0-32.450704 14.422535-32.450705 32.450704v829.295775c0 18.028169 14.422535 32.450704 32.450705 32.450704h829.295774c18.028169 0 32.450704-14.422535 32.450705-32.450704v-829.295775c0-18.028169-14.422535-32.450704-32.450705-32.450704zM512 64.901408c36.056338 0 64.901408 28.84507 64.901408 64.901409s-28.84507 64.901408-64.901408 64.901408-64.901408-28.84507-64.901408-64.901408 28.84507-64.901408 64.901408-64.901409z m382.197183 894.197184H126.197183V191.098592H252.394366V288.450704c0 18.028169 14.422535 32.450704 32.450704 32.450704h447.098592c18.028169 0 32.450704-14.422535 32.450704-32.450704V191.098592h126.197183v768z" p-id="3096"></path><path d="M764.394366 566.084507h-39.661972c-3.605634 0-7.211268 0-7.211267 3.605634l-7.211268 7.211267c-14.422535-32.450704-36.056338-64.901408-61.295774-97.352112-14.422535-18.028169-36.056338-28.84507-61.295775-28.845071h-158.647887c-25.239437 0-46.873239 10.816901-61.295775 28.845071-28.84507 36.056338-46.873239 64.901408-61.295775 97.352112l-7.211267-7.211267c-3.605634-3.605634-3.605634-3.605634-7.211268-3.605634H252.394366c-7.211268 0-10.816901 3.605634-10.816901 10.816901v25.239437c0 7.211268 3.605634 10.816901 10.816901 10.816901l39.661972 3.605634c-7.211268 18.028169-10.816901 43.267606-10.816901 82.929578 0 32.450704 7.211268 54.084507 18.028169 68.507042V829.295775c0 3.605634 3.605634 10.816901 10.816901 10.816901h43.267606c3.605634 0 10.816901-3.605634 10.816901-10.816901v-36.056338h292.056338v36.056338c0 3.605634 3.605634 10.816901 10.816902 10.816901h43.267605c3.605634 0 10.816901-3.605634 10.816902-10.816901v-61.295775c10.816901-14.422535 18.028169-36.056338 18.028169-68.507042 0-36.056338-3.605634-64.901408-10.816902-82.929578l39.661972-3.605634c7.211268 0 10.816901-3.605634 10.816901-10.816901V576.901408c0-7.211268-7.211268-10.816901-14.422535-10.816901z m-360.56338-61.295775c7.211268-7.211268 18.028169-14.422535 25.239437-14.422535h158.647887c10.816901 0 21.633803 3.605634 25.239436 14.422535 18.028169 25.239437 36.056338 46.873239 46.87324 68.507043H356.957746c10.816901-21.633803 25.239437-43.267606 46.87324-68.507043z m-32.450704 237.971831c-21.633803 0-39.661972-7.211268-39.661972-25.239436 0-18.028169 7.211268-32.450704 28.84507-32.450704 21.633803 0 50.478873 14.422535 50.478874 32.450704s-18.028169 25.239437-39.661972 25.239436z m180.28169-3.605633h-86.535211c-14.422535 0-21.633803-10.816901-21.633803-21.633803 0-3.605634 3.605634-7.211268 7.211267-7.211268h118.985916c3.605634 0 7.211268 3.605634 7.211267 7.211268-3.605634 10.816901-14.422535 21.633803-25.239436 21.633803z m97.352113 3.605633c-21.633803 0-39.661972-7.211268-39.661972-25.239436 0-18.028169 28.84507-32.450704 50.478873-32.450704s28.84507 14.422535 28.84507 32.450704-18.028169 25.239437-39.661971 25.239436z" p-id="3097"></path></svg>