<?xml version="1.0" encoding="UTF-8"?>
<svg width="69px" height="42px" viewBox="0 0 69 42" version="1.1" xmlns="http://www.w3.org/2000/svg" xmlns:xlink="http://www.w3.org/1999/xlink">
    <!-- Generator: Sketch 52.5 (67469) - http://www.bohemiancoding.com/sketch -->
    <title>logo_2</title>
    <desc>Created with Sketch.</desc>
    <g id="logo_2" stroke="none" stroke-width="1" fill="none" fill-rule="evenodd">
        <g id="天翼云" fill="#FFFFFF">
            <path d="M68.478569,26.8642006 C68.478569,34.7094928 61.8593752,41.2472363 53.9163427,41.2472363 C48.6209877,41.2472363 43.7669123,38.1962893 41.1192348,33.8377937 C41.1192348,33.8377937 41.1192348,33.4019441 40.6779552,33.4019441 C40.2366757,31.6585458 40.2366757,29.9151476 40.2366757,28.6075989 L34.0587615,28.6075989 L34.0587615,26.8642006 L42.001794,18.5830589 L51.2686652,26.4283511 L51.2686652,28.1717493 L46.8558694,28.1717493 L46.8558694,31.2226963 C47.297149,32.0943954 48.1797082,32.9660945 49.0622673,33.4019441 L49.5035469,33.8377937 C50.8273857,34.7094928 52.1512244,35.1453424 53.9163427,35.1453424 C58.3291386,35.1453424 61.8593752,31.6585458 61.8593752,27.3000502 C61.8593752,25.1208024 60.9768161,22.9415546 59.2116977,21.6340059 L58.3291386,20.7623068 C57.887859,20.3264572 57.887859,20.3264572 57.4465794,20.3264572 C57.4465794,19.4547581 56.5640202,19.0189085 55.6814611,19.0189085 L54.7989019,19.0189085 L54.3576223,19.0189085 L52.592504,19.0189085 C53.0337836,18.5830589 53.0337836,17.7113598 53.0337836,16.8396607 C53.0337836,14.6604129 51.7099448,12.9170146 49.9448265,12.0453155 C49.5035469,12.0453155 49.5035469,11.6094659 49.0622673,11.6094659 C48.6209877,11.1736164 47.7384286,11.1736164 46.8558694,11.1736164 C44.6494715,11.1736164 42.8843532,12.481165 42.001794,14.2245633 C41.5605144,11.6094659 39.7953961,9.4302181 37.5889982,7.68681984 C36.2651594,6.37927115 33.6174819,5.50757202 31.411084,5.50757202 C27.8808473,5.50757202 24.7918902,6.81512071 23.0267719,9.4302181 C21.2616536,11.6094659 20.3790944,13.7887137 19.9378148,16.4038111 C18.6139761,15.532112 16.8488577,15.0962624 15.0837394,15.0962624 C14.2011802,15.0962624 13.3186211,15.0962624 12.8773415,15.532112 C8.46454567,16.4038111 5.37558858,20.3264572 5.37558858,24.6849528 C5.37558858,29.0434485 8.46454567,32.9660945 12.8773415,34.2736432 C13.7599007,34.2736432 14.6424598,34.7094928 15.9662986,34.7094928 C16.8488577,34.7094928 38.9128369,35.1453424 38.9128369,35.1453424 C40.2366757,38.1962893 42.001794,39.0679884 45.0907511,40.3755371 L14.6424598,40.3755371 C6.69942733,39.503838 0.521513168,32.9660945 0.521513168,25.1208024 C0.521513168,16.4038111 7.5819865,9.4302181 16.4075782,9.4302181 C19.4965352,4.20002333 25.2331698,0.71322682 31.8523636,0.71322682 C36.706439,0.71322682 41.5605144,2.89247464 44.6494715,5.94342158 L46.8558694,5.94342158 C52.1512244,5.94342158 56.5640202,8.99436853 58.3291386,13.7887137 C64.5070527,15.532112 68.478569,20.7623068 68.478569,26.8642006 Z" id="Path"></path>
        </g>
    </g>
</svg>