<?xml version="1.0" encoding="UTF-8"?>
<svg width="240px" height="40px" viewBox="0 0 240 40" version="1.1" xmlns="http://www.w3.org/2000/svg" xmlns:xlink="http://www.w3.org/1999/xlink">
    <!-- Generator: Sketch 52.5 (67469) - http://www.bohemiancoding.com/sketch -->
    <title>logo_1</title>
    <desc>Created with Sketch.</desc>
    <g id="logo_1" stroke="none" stroke-width="1" fill="none" fill-rule="evenodd">
        <g id="logo_text" fill="#FFFFFF">
            <path d="M51.52,16.52 L58.62,16.52 C58.84,15.26 59,13.88 59.08,12.38 L52.04,12.38 L52.04,10.56 L67.96,10.56 L67.96,12.38 L61,12.38 C60.9,13.9 60.74,15.28 60.54,16.52 L68.54,16.52 L68.54,18.34 L61.44,18.34 C62.84,21.92 65.42,24.68 69.2,26.62 L68.02,28.16 C64.12,26.04 61.44,23.04 59.96,19.18 C59.64,20.3 59.28,21.24 58.84,22 C57.5,24.38 55.22,26.44 52.02,28.18 L50.82,26.62 C53.74,25.1 55.82,23.32 57.06,21.24 C57.52,20.46 57.9,19.5 58.22,18.34 L51.52,18.34 L51.52,16.52 Z M71.84,10.02 L79.32,10.02 L79.32,15.12 L77.52,15.12 L77.52,14.04 C75.76,14.52 73.92,14.94 71.98,15.3 L71.6,13.86 C72.88,13.7 74.12,13.5 75.32,13.26 C74.32,12.92 73.3,12.66 72.22,12.46 L72.74,11.46 L71.84,11.46 L71.84,10.02 Z M73.32,11.46 C74.32,11.68 75.26,11.98 76.16,12.36 L75.82,13.16 C76.4,13.04 76.96,12.9 77.52,12.76 L77.52,11.46 L73.32,11.46 Z M80.12,10.02 L87.76,10.02 L87.76,15.12 L85.98,15.12 L85.98,14.02 C84.26,14.46 82.44,14.82 80.52,15.12 L80.16,13.68 C81.4,13.56 82.6,13.38 83.78,13.18 C82.78,12.84 81.76,12.58 80.72,12.4 L81.2,11.46 L80.12,11.46 L80.12,10.02 Z M82.06,11.46 C82.98,11.68 83.86,11.96 84.72,12.3 L84.44,13.06 L85.98,12.76 L85.98,11.46 L82.06,11.46 Z M73.5,15.46 L86.6,15.46 L86.6,20.74 L84.02,20.74 L84.02,21.56 L87.6,21.56 L87.6,22.92 L84.02,22.92 L84.02,23.84 L88.66,23.84 L88.66,25.24 L83,25.24 C84.82,25.6 86.56,26.08 88.2,26.72 L87.64,28.16 C85.7,27.32 83.68,26.68 81.6,26.24 L82.12,25.24 L77.78,25.24 L78.54,26.1 C76.88,26.94 74.84,27.64 72.44,28.2 L71.74,26.7 C73.9,26.3 75.68,25.82 77.12,25.24 L71.34,25.24 L71.34,23.84 L75.98,23.84 L75.98,22.92 L72.5,22.92 L72.5,21.56 L75.98,21.56 L75.98,20.74 L73.5,20.74 L73.5,15.46 Z M77.7,23.84 L82.3,23.84 L82.3,22.92 L77.7,22.92 L77.7,23.84 Z M82.3,21.56 L82.3,20.74 L77.7,20.74 L77.7,21.56 L82.3,21.56 Z M84.8,19.44 L84.8,18.68 L80.9,18.68 L80.9,19.44 L84.8,19.44 Z M79.18,19.44 L79.18,18.68 L75.3,18.68 L75.3,19.44 L79.18,19.44 Z M75.3,17.52 L79.18,17.52 L79.18,16.78 L75.3,16.78 L75.3,17.52 Z M80.9,16.78 L80.9,17.52 L84.8,17.52 L84.8,16.78 L80.9,16.78 Z M92.92,10.62 L107.28,10.62 L107.28,12.46 L92.92,12.46 L92.92,10.62 Z M91,16.14 L109.06,16.14 L109.06,18.04 L99.58,18.04 C97.86,21.48 96.36,23.94 95.06,25.42 C98.34,25.22 101.62,24.88 104.86,24.42 C104.22,23.28 103.52,22.1 102.76,20.9 L104.28,19.96 C106.1,22.66 107.5,25.02 108.5,27.02 L106.8,28.2 C106.48,27.52 106.16,26.84 105.8,26.16 C101.78,26.72 97.42,27.16 92.7,27.48 L92.2,25.54 C92.4,25.48 92.56,25.42 92.66,25.36 C93.88,24.44 95.48,22 97.46,18.04 L91,18.04 L91,16.14 Z M113.76,12.58 C113.34,13.18 112.9,13.68 112.44,14.1 L115.32,14.1 C115.4,13.6 115.46,13.1 115.5,12.58 L113.76,12.58 Z M114.8,15.84 L111.08,15.84 L111.08,14.1 L111.98,14.1 L111.04,12.92 C111.96,12.1 112.78,10.94 113.46,9.42 L115.16,9.78 C115.02,10.18 114.86,10.54 114.7,10.9 L120.18,10.9 L120.18,12.58 L117.32,12.58 C117.28,13.12 117.24,13.62 117.16,14.1 L120.74,14.1 L120.74,15.84 L116.76,15.84 C116.72,15.94 116.7,16.04 116.68,16.12 C118.16,16.88 119.4,17.64 120.44,18.4 L119.26,19.6 L126.9,19.6 L126.9,28.1 L124.98,28.1 L124.98,27.32 L115.54,27.32 L115.54,28.1 L113.64,28.1 L113.64,19.88 C113.12,20.2 112.58,20.52 111.98,20.8 L110.7,19.26 C112.78,18.34 114.12,17.24 114.76,15.92 L114.8,15.84 Z M115.54,25.64 L124.98,25.64 L124.98,24.32 L115.54,24.32 L115.54,25.64 Z M115.54,22.68 L124.98,22.68 L124.98,21.28 L115.54,21.28 L115.54,22.68 Z M114.04,19.6 L118.92,19.6 C118.16,18.92 117.22,18.22 116.06,17.5 C115.58,18.26 114.9,18.96 114.04,19.6 Z M121.36,10.92 L128.36,10.92 L128.36,18.48 L121.36,18.48 L121.36,10.92 Z M126.5,16.82 L126.5,12.6 L123.22,12.6 L123.22,16.82 L126.5,16.82 Z M146.9,23 L140.3,23 C141.08,23.66 141.7,24.24 142.14,24.74 L140.84,25.66 C140.32,25.04 139.64,24.36 138.78,23.62 L139.78,23 L132.62,23 L132.62,21.64 L145.06,21.64 L145.06,20.74 L133.5,20.74 L133.5,19.46 L145.06,19.46 L145.06,18.58 L132.86,18.58 L132.86,17.22 L135.04,17.22 L135.04,16.32 L131.62,16.32 L131.62,15 L135.04,15 L135.04,14.14 L132.36,14.14 L132.36,12.82 L135.04,12.82 L135.04,11.98 L131.98,11.98 L131.98,10.66 L135.04,10.66 L135.04,9.7 L136.9,9.7 L136.9,10.66 L139.62,10.66 L139.62,11.98 L136.9,11.98 L136.9,12.82 L139.34,12.82 L139.34,14.14 L136.9,14.14 L136.9,15 L139.62,15 L139.62,16.32 L136.9,16.32 L136.9,17.22 L143.22,17.22 L143.22,16.32 L140.24,16.32 L140.24,15 L143.22,15 L143.22,14.14 L140.66,14.14 L140.66,12.82 L143.22,12.82 L143.22,11.98 L140.34,11.98 L140.34,10.66 L143.22,10.66 L143.22,9.7 L145.06,9.7 L145.06,10.66 L148.1,10.66 L148.1,11.98 L145.06,11.98 L145.06,12.82 L147.68,12.82 L147.68,14.14 L145.06,14.14 L145.06,15 L148.38,15 L148.38,16.32 L145.06,16.32 L145.06,17.22 L146.9,17.22 L146.9,23 Z M132.72,23.7 L134.38,24.06 C133.94,25.48 133.36,26.7 132.62,27.74 L131.12,26.78 C131.86,25.82 132.4,24.8 132.72,23.7 Z M142.8,27.7 L137.42,27.7 C136.1,27.7 135.46,27.1 135.46,25.94 L135.46,23.64 L137.28,23.64 L137.28,25.54 C137.28,25.9 137.48,26.08 137.92,26.08 L142.44,26.08 C142.78,26.08 143.02,26 143.16,25.86 C143.36,25.66 143.48,25.12 143.56,24.2 L145.28,24.76 C145.12,26.18 144.86,27.04 144.48,27.32 C144.1,27.56 143.54,27.7 142.8,27.7 Z M146.78,23.36 C147.88,24.54 148.74,25.58 149.34,26.46 L147.94,27.42 C147.32,26.46 146.48,25.38 145.42,24.2 L146.78,23.36 Z M165.94,27.9 L164.3,27.9 L163.82,26.12 L165.56,26.16 C166.08,26.16 166.36,25.8 166.36,25.1 L166.36,12.24 L158.84,12.24 L158.84,10.48 L168.2,10.48 L168.2,25.62 C168.2,27.14 167.44,27.9 165.94,27.9 Z M151.76,12.92 L153.6,12.92 L153.6,28.08 L151.76,28.08 L151.76,12.92 Z M155.1,9.4 C156.02,10.48 156.84,11.68 157.54,12.96 L155.84,13.86 C155.08,12.46 154.26,11.24 153.38,10.16 L155.1,9.4 Z M180.24,13.86 L182.14,13.86 L182.14,16.02 L188.52,16.02 L188.52,17.82 L182.14,17.82 L182.14,20.36 L187.38,20.36 L187.38,28.04 L185.5,28.04 L185.5,27.16 L177.62,27.16 L177.62,28.04 L175.74,28.04 L175.74,20.36 L180.24,20.36 L180.24,13.86 Z M177.62,25.38 L185.5,25.38 L185.5,22.12 L177.62,22.12 L177.62,25.38 Z M180.78,9.5 C181.1,10.08 181.38,10.72 181.66,11.4 L188.96,11.4 L188.96,13.24 L174.44,13.24 L174.44,17.4 C174.38,21.8 173.66,25.32 172.28,27.96 L170.84,26.68 C171.94,24.46 172.52,21.36 172.56,17.4 L172.56,11.4 L179.72,11.4 C179.44,10.82 179.12,10.3 178.8,9.82 L180.78,9.5 Z M199.3,28 L197.04,28 L196.6,26.14 C197.32,26.22 198,26.26 198.64,26.26 C199.06,26.26 199.28,26.04 199.28,25.6 L199.28,21.18 C197.36,21.3 195.32,21.4 193.12,21.5 L192.6,19.84 C193.2,19.78 193.76,19.66 194.24,19.5 C195.72,18.86 197.34,17.9 199.1,16.6 C197.5,16.72 195.78,16.84 193.98,16.94 L193.58,15.26 C194.04,15.22 194.46,15.1 194.86,14.92 C195.66,14.52 196.62,13.7 197.74,12.46 C196.16,12.52 194.5,12.56 192.74,12.56 L192.18,10.92 C197.9,10.92 202.74,10.52 206.68,9.76 L207.62,11.34 C205.5,11.8 202.98,12.12 200.1,12.32 C199.06,13.52 197.98,14.52 196.86,15.32 C198.26,15.24 199.66,15.16 201.06,15.06 C201.9,14.36 202.78,13.6 203.68,12.78 L205.44,13.64 C202.26,16.4 199.5,18.42 197.16,19.74 C199.94,19.56 202.36,19.34 204.42,19.1 C203.98,18.52 203.54,17.94 203.06,17.36 L204.46,16.48 C206.12,18.4 207.4,20.1 208.28,21.54 L206.76,22.6 C206.4,21.96 205.98,21.3 205.52,20.62 C204.2,20.78 202.76,20.92 201.18,21.04 L201.18,26.06 C201.18,27.34 200.54,28 199.3,28 Z M203.88,21.96 C205.88,23.4 207.54,24.84 208.88,26.28 L207.52,27.64 C206.36,26.26 204.72,24.78 202.62,23.2 L203.88,21.96 Z M195.9,22.1 L197.24,23.3 C195.88,24.92 194.22,26.34 192.22,27.56 L191.02,26 C192.94,24.88 194.58,23.58 195.9,22.1 Z M217.64,23.18 L217.64,25 C215.82,25.92 213.74,26.68 211.42,27.24 L211.2,25.34 C213.64,24.8 215.8,24.08 217.64,23.18 Z M214.16,9.52 L215.98,10.24 C215.02,12.62 214.06,14.56 213.1,16.04 C213.78,15.96 214.46,15.86 215.14,15.74 C215.48,15.1 215.84,14.4 216.2,13.66 L217.9,14.3 C216.3,17.34 214.96,19.58 213.86,21.02 C215.1,20.68 216.36,20.24 217.64,19.68 L217.64,21.42 C215.48,22.32 213.42,22.92 211.48,23.24 L210.98,21.48 C211.32,21.32 211.6,21.14 211.84,20.92 C212.46,20.26 213.24,19.12 214.18,17.5 C213.26,17.66 212.3,17.8 211.3,17.94 L210.82,16.2 C211.12,16.08 211.4,15.82 211.64,15.46 C212.6,13.68 213.44,11.7 214.16,9.52 Z M218.24,18.58 L217.82,16.9 C217.98,16.86 218.12,16.8 218.2,16.76 C218.8,16.32 219.58,15.18 220.52,13.38 L217.42,13.38 L217.42,11.56 L222.28,11.56 C222.04,10.92 221.78,10.32 221.5,9.76 L223.44,9.44 C223.7,10.08 223.96,10.78 224.2,11.56 L228.58,11.56 L228.58,13.38 L222.5,13.38 C221.74,14.82 221.06,15.92 220.46,16.72 C222.08,16.56 223.7,16.36 225.3,16.12 C224.9,15.56 224.5,15.02 224.1,14.48 L225.54,13.58 C226.86,15.28 227.88,16.78 228.6,18.06 L227.12,19.08 C226.88,18.62 226.6,18.16 226.32,17.68 C223.84,18.06 221.14,18.36 218.24,18.58 Z M219.72,19.2 L221.56,19.2 C221.46,21.74 221.14,23.6 220.62,24.78 C220.04,26.02 219.08,27.1 217.72,28.02 L216.52,26.52 C217.64,25.8 218.44,24.94 218.92,23.94 C219.38,22.98 219.64,21.4 219.72,19.2 Z M227.04,27.7 L225.76,27.7 C224.34,27.7 223.64,27.06 223.64,25.8 L223.64,18.98 L225.46,18.98 L225.46,25.44 C225.46,25.76 225.58,25.96 225.82,26 L226.94,26 C227.3,25.96 227.52,25.7 227.56,25.22 C227.62,24.68 227.66,23.9 227.66,22.9 L229.3,23.48 C229.3,25.4 229.14,26.56 228.86,27 C228.58,27.4 227.96,27.62 227.04,27.7 Z" id="天翼云智慧门店系统"></path>
            <g id="logo_2" transform="translate(7.000000, 9.000000)">
                <g id="天翼云">
                    <path d="M34.2392845,13.4321003 C34.2392845,17.3547464 30.9296876,20.6236181 26.9581714,20.6236181 C24.3104939,20.6236181 21.8834562,19.0981447 20.5596174,16.9188968 C20.5596174,16.9188968 20.5596174,16.7009721 20.3389776,16.7009721 C20.1183378,15.8292729 20.1183378,14.9575738 20.1183378,14.3037995 L17.0293807,14.3037995 L17.0293807,13.4321003 L21.000897,9.29152947 L25.6343326,13.2141755 L25.6343326,14.0858747 L23.4279347,14.0858747 L23.4279347,15.6113481 C23.6485745,16.0471977 24.0898541,16.4830473 24.5311337,16.7009721 L24.7517735,16.9188968 C25.4136928,17.3547464 26.0756122,17.5726712 26.9581714,17.5726712 C29.1645693,17.5726712 30.9296876,15.8292729 30.9296876,13.6500251 C30.9296876,12.5604012 30.488408,11.4707773 29.6058489,10.8170029 L29.1645693,10.3811534 C28.9439295,10.1632286 28.9439295,10.1632286 28.7232897,10.1632286 C28.7232897,9.72737903 28.2820101,9.50945425 27.8407305,9.50945425 L27.399451,9.50945425 L27.1788112,9.50945425 L26.296252,9.50945425 C26.5168918,9.29152947 26.5168918,8.8556799 26.5168918,8.41983034 C26.5168918,7.33020643 25.8549724,6.4585073 24.9724132,6.02265774 C24.7517735,6.02265774 24.7517735,5.80473296 24.5311337,5.80473296 C24.3104939,5.58680818 23.8692143,5.58680818 23.4279347,5.58680818 C22.3247357,5.58680818 21.4421766,6.24058252 21.000897,7.11228165 C20.7802572,5.80473296 19.897698,4.71510905 18.7944991,3.84340992 C18.1325797,3.18963557 16.808741,2.75378601 15.705542,2.75378601 C13.9404237,2.75378601 12.3959451,3.40756036 11.513386,4.71510905 C10.6308268,5.80473296 10.1895472,6.89435687 9.96890742,8.20190556 C9.30698804,7.76605599 8.42442887,7.54813121 7.54186971,7.54813121 C7.10059012,7.54813121 6.65931054,7.54813121 6.43867075,7.76605599 C4.23227283,8.20190556 2.68779429,10.1632286 2.68779429,12.3424764 C2.68779429,14.5217242 4.23227283,16.4830473 6.43867075,17.1368216 C6.87995033,17.1368216 7.32122992,17.3547464 7.98314929,17.3547464 C8.42442887,17.3547464 19.4564185,17.5726712 19.4564185,17.5726712 C20.1183378,19.0981447 21.000897,19.5339942 22.5453755,20.1877686 L7.32122992,20.1877686 C3.34971367,19.751919 0.260756584,16.4830473 0.260756584,12.5604012 C0.260756584,8.20190556 3.79099325,4.71510905 8.20378908,4.71510905 C9.74826762,2.10001166 12.6165849,0.35661341 15.9261818,0.35661341 C18.3532195,0.35661341 20.7802572,1.44623732 22.3247357,2.97171079 L23.4279347,2.97171079 C26.0756122,2.97171079 28.2820101,4.49718427 29.1645693,6.89435687 C32.2535264,7.76605599 34.2392845,10.3811534 34.2392845,13.4321003 Z" id="Path"></path>
                </g>
            </g>
        </g>
    </g>
</svg>