<?xml version="1.0" encoding="UTF-8"?>
<svg width="24px" height="24px" viewBox="0 0 24 24" version="1.1" xmlns="http://www.w3.org/2000/svg" xmlns:xlink="http://www.w3.org/1999/xlink">
    <!-- Generator: Sketch 52.5 (67469) - http://www.bohemiancoding.com/sketch -->
    <title>ic_man</title>
    <desc>Created with Sketch.</desc>
    <g id="ic_man" stroke="none" stroke-width="1" fill="none" fill-rule="evenodd">
        <g>
            <circle id="Oval" fill="#E8F2FF" cx="12" cy="12" r="12"></circle>
            <g id="Group-2-Copy" transform="translate(7.000000, 6.000000)" fill="#2282FF" fill-rule="nonzero">
                <path d="M5.8,12.1590248 L7.78747873,10.3040447 L8.87918793,11.4737331 L5,15.0943085 L1.12081207,11.4737331 L2.21252127,10.3040447 L4.2,12.1590248 L4.2,9.9363442 C1.81885935,9.55343219 0,7.48912478 0,5 C0,2.23857625 2.23857625,0 5,0 C7.76142375,0 10,2.23857625 10,5 C10,7.48912478 8.18114065,9.55343219 5.8,9.9363442 L5.8,12.1590248 Z M5,8.4 C6.87776815,8.4 8.4,6.87776815 8.4,5 C8.4,3.12223185 6.87776815,1.6 5,1.6 C3.12223185,1.6 1.6,3.12223185 1.6,5 C1.6,6.87776815 3.12223185,8.4 5,8.4 Z" id="Combined-Shape"></path>
            </g>
        </g>
    </g>
</svg>
