<svg t="1572316200542" class="icon" viewBox="0 0 1102 1024" version="1.1" xmlns="http://www.w3.org/2000/svg" p-id="9219" width="200" height="200"><path d="M872.684308 335.084308h190.38523a39.384615 39.384615 0 1 1 0 78.76923H872.763077a39.384615 39.384615 0 0 1 0-78.76923zM786.116923 112.797538h276.952615a39.384615 39.384615 0 1 1 0 78.769231H786.116923a39.384615 39.384615 0 1 1 0-78.769231zM939.953231 557.292308h123.116307a39.384615 39.384615 0 1 1 0 78.76923h-123.116307a39.384615 39.384615 0 1 1 0-78.76923z" p-id="9220"></path><path d="M446.227692 588.248615a281.521231 281.521231 0 1 0 0-563.042461 281.521231 281.521231 0 0 0 0 563.042461z m0-78.76923a202.752 202.752 0 1 1 0-405.504 202.752 202.752 0 0 1 0 405.504z" p-id="9221"></path><path d="M885.523692 952.477538a439.296 439.296 0 0 0-878.592 0 39.384615 39.384615 0 1 0 78.769231 0 360.526769 360.526769 0 0 1 721.053539 0 39.384615 39.384615 0 1 0 78.76923 0z" p-id="9222"></path></svg>