<?xml version="1.0" standalone="no"?><!DOCTYPE svg PUBLIC "-//W3C//DTD SVG 1.1//EN" "http://www.w3.org/Graphics/SVG/1.1/DTD/svg11.dtd"><svg t="1563951892793" class="icon" viewBox="0 0 1024 1024" version="1.1" xmlns="http://www.w3.org/2000/svg" p-id="6032" xmlns:xlink="http://www.w3.org/1999/xlink"><defs><style type="text/css"></style></defs><path d="M264.6 959.7h494.9c48.7 0 82.4-33.5 82.4-81.3V145.7c0-47.9-33.7-81.3-82.4-81.3H264.7c-48.7 0-82.4 33.4-82.4 81.3v732.6c-0.2 47.9 33.5 81.4 82.3 81.4z m577.3-234.5v46H182.1v-46c0-1.5 219.9-1.5 659.8 0zM606.2 158.6v47.1H417.8v-47.1h188.4z m-47.1 706.8c0 26-21 47.1-47.1 47.1-26 0-47.1-21.2-47.1-47.1s21.2-47.1 47.1-47.1c26 0 47.1 21.2 47.1 47.1z" p-id="6033" fill="#333"></path></svg>
