<?xml version="1.0" standalone="no"?><!DOCTYPE svg PUBLIC "-//W3C//DTD SVG 1.1//EN" "http://www.w3.org/Graphics/SVG/1.1/DTD/svg11.dtd"><svg class="icon" width="200px" height="200.00px" viewBox="0 0 1024 1024" version="1.1" xmlns="http://www.w3.org/2000/svg"><path fill="#ED7C30" d="M766.6 243.6l24.4-48.1 119.5 58.7 10.9-22.2c38.6-78.7 6-174.2-72.7-212.9C810.6 0.4 767.5-2.3 727.2 11.4s-72.8 42.3-91.4 80.3l-10.9 22.2 121.7 59.8-21 41.4c-62.4-38.3-135.5-60.8-214-60.8-78.4 0-151.5 22.5-214 60.8l-21-41.4 121.7-59.8-10.9-22.2C348.7 13 253.2-19.6 174.4 19.1c-38.1 18.7-66.6 51.2-80.3 91.4-13.7 40.3-11 83.4 7.7 121.5l10.9 22.2 119.5-58.7 24.4 48.1c-94.9 75.4-156 191.5-156 321.8 0 140.5 70.9 264.6 178.7 338.7l-47.9 82.7c-3.3 5.7-4.2 12.4-2.5 18.8 1.7 6.4 5.8 11.7 11.4 15 3.8 2.2 8.1 3.4 12.4 3.4 8.8 0 17-4.7 21.4-12.3l47.6-82.1c56.9 29.8 121.4 46.8 189.9 46.8 66 0 128.1-16 183.4-43.7l45.8 79c4.4 7.6 12.6 12.3 21.4 12.3 4.4 0 8.7-1.2 12.4-3.3 5.7-3.3 9.8-8.6 11.5-15 1.7-6.4 0.8-13-2.5-18.7L738 908.3c111.2-73.6 184.7-199.7 184.7-342.8-0.1-130.4-61.2-246.5-156.1-321.9zM511.6 927C312.2 927 150 764.8 150 565.4c0-199.4 162.2-361.6 361.6-361.6 199.4 0 361.6 162.2 361.6 361.6 0 199.4-162.3 361.6-361.6 361.6z m373.8-740.2L693.6 92.6c20.7-25.4 51.8-40.3 85.2-40.3 16.8 0 33 3.8 48.1 11.2 46.1 22.6 69.9 74.2 58.5 123.3zM329.6 92.6l-191.8 94.2c-11.5-49.1 12.3-100.7 58.5-123.3 15.1-7.4 31.3-11.2 48.1-11.2 33.4-0.1 64.5 14.8 85.2 40.3z"  /><path fill="#ED7C30" d="M585.7 612.8c9.2-14.3 14.7-31.2 14.7-49.5 0-50.8-41.3-92.2-92.2-92.2-17.1 0-32.9 5-46.6 13.1L297.8 319.6c-4.7-4.7-10.9-7.3-17.5-7.3s-12.8 2.6-17.4 7.2c-4.7 4.7-7.3 10.9-7.3 17.4 0 6.6 2.5 12.8 7.2 17.5L427.4 520c-7 13-11.3 27.6-11.3 43.3 0 50.8 41.3 92.2 92.2 92.2 14.6 0 28.2-3.7 40.5-9.8l76 76.4c4.7 4.7 10.9 7.3 17.5 7.3s12.8-2.6 17.5-7.2c9.6-9.6 9.6-25.3 0.1-34.9l-74.2-74.5z m-116.2-84.9c0.1-0.1 0.3-0.1 0.4-0.2 0.3-0.3 0.4-0.7 0.7-1 9.6-9.8 22.9-16 37.7-16 29.1 0 52.7 23.6 52.7 52.7s-23.7 52.7-52.7 52.7-52.7-23.6-52.7-52.7c-0.1-13.8 5.3-26.2 13.9-35.5z"  /></svg>