<svg class="icon" viewBox="0 0 1024 1024" xmlns="http://www.w3.org/2000/svg" width="200" height="200"><path d="M1024 325.659c0 101.019-81.868 182.911-182.857 182.911-72.387 0-134.944-42.076-164.576-103.109C646.935 466.492 584.385 508.57 512 508.57c-72.386 0-134.944-42.076-164.576-103.109-29.632 61.031-92.182 103.109-164.567 103.109C81.868 508.57 0 426.678 0 325.659c0-3.829 0.132-7.627 0.364-11.397a73.971 73.971 0 0 1-0.333-6.888l1.262-3.474c3.391-28.612 17.815-53.866 28.412-78.192L73.142 106.16c14.055-40.402 32.75-73.164 73.143-73.164h731.428c40.393 0 59.783 34.365 73.144 73.164l43.435 119.543c7.98 22.999 25.025 49.588 28.416 78.206l1.259 3.465a73.99 73.99 0 0 1-0.332 6.872c0.233 3.775 0.365 7.578 0.365 11.413z m-50.03-25.727l-1.136-2.74c-3.059-22.626-18.44-43.649-25.641-61.833L908 140.844c-14.234-37.208-15.039-57.847-66.001-57.847h-660c-43.762 0-47.048 16.499-65.999 57.847l-39.196 94.519c-9.562 19.233-22.577 39.2-25.637 61.822l-1.139 2.747c0 1.837 0.109 3.652 0.3 5.446a128.738 128.738 0 0 0-0.328 9.01c0 79.871 50.494 144.618 141.621 144.618 65.316 0 121.765-83.492 153.506-131.746 31.742 46.588 84.46 131.746 166.873 131.746 84.121-1.709 128.446-80.112 161.855-130.034 28.239 43.252 84.832 131.744 162.116 130.034C927.076 456.991 974 394.259 974 314.388a128.5 128.5 0 0 0-0.329-9.023c0.19-1.79 0.299-3.6 0.299-5.433zM863 594v-50h50v71h-50v-21zM550 985H211c-55.228 0-100-44.772-100-100V544h50v311c0 44.183 35.817 80 80 80h309v50zM712.28 964.02c-100.516 0-182-81.484-182-182s81.484-182 182-182 182 81.484 182 182-81.484 182-182 182z m0-314c-72.902 0-132 59.098-132 132s59.098 132 132 132 132-59.098 132-132-59.098-132-132-132zM821.088 914.444l35.356-35.356 66.468 66.468-35.356 35.356-66.468-66.468z"></path></svg>