<?xml version="1.0" standalone="no"?><!DOCTYPE svg PUBLIC "-//W3C//DTD SVG 1.1//EN" "http://www.w3.org/Graphics/SVG/1.1/DTD/svg11.dtd"><svg t="1589520554570" class="icon" viewBox="0 0 1024 1024" version="1.1" xmlns="http://www.w3.org/2000/svg" p-id="1943" xmlns:xlink="http://www.w3.org/1999/xlink" width="200" height="200"><defs><style type="text/css"></style></defs><path d="M486.55 78.83c42.46-3.94 85.92 2.74 125.11 19.62 33.62 14.41 64.07 36.15 88.67 63.21 23.62 25.92 41.87 56.71 53.16 89.91 14.28 41.75 17.38 87.2 9.27 130.55-6.87 36.89-22.06 72.18-44.06 102.58-20.55 28.53-47.03 52.75-77.27 70.68-31.43 18.76-66.98 30.54-103.38 34.41-41.3 4.43-83.7-1.12-122.3-16.53-35.57-14.02-67.82-36.25-93.78-64.29-23.24-25.08-41.46-54.82-53.06-86.99-23.72-65.04-19.65-139.7 11.4-201.63 27-54.66 74.14-99.03 130.39-122.56 24.1-10.18 49.79-16.58 75.85-18.96m16.76 45.53c-17.17 0.59-34.26 3.25-50.78 7.98-36.01 10.24-69.08 30.46-94.78 57.66-20.3 21.4-36.01 47.11-45.8 74.93-18.96 53.69-14.93 115.13 11.47 165.65 17.63 34.47 45.1 63.8 78.23 83.83 28.74 17.51 61.79 27.85 95.38 29.9 39.87 2.62 80.45-6.44 115.34-25.94 32.98-18.32 60.9-45.66 79.83-78.3 17.88-30.53 27.72-65.7 28.38-101.07 0.91-38.13-8.86-76.49-28.03-109.48-18.7-32.46-46.25-59.73-78.87-78.15-33.36-18.97-72.03-28.35-110.37-27.01zM273.24 551.31c6.81-1.26 14.02 0.64 19.35 5.04 62.11 46.14 138.83 73.12 216.42 72.9 11.03 0.2 22.05-0.46 33.04-1.37 7.38-0.52 14.91 2.76 19.55 8.53 4.63 5.64 6.27 13.57 4.39 20.61-0.76 3.19-2.46 6.03-4 8.89-19.52 36.97-28.76 79.31-26.38 121.05 2.29 43.53 17.45 86.21 42.8 121.64 3.73 4.81 7.42 10.1 7.7 16.42 1.33 12.3-8.77 24.35-21.16 25.04-10.97 0.45-21.97 0.06-32.95 0.19-146.64-0.01-293.29 0.02-439.93-0.02-13 0.59-24.79-11.22-23.8-24.26 5.49-83.51 30.78-165.86 74.49-237.33 30.2-49.4 69.14-93.59 115.14-128.83 4.63-3.59 9.33-7.63 15.34-8.5m-78.77 143.14c-42.34 62.11-68.65 134.78-77.42 209.35 134.57-0.11 269.13-0.03 403.7-0.04-14.52-27.73-24.51-57.85-29.03-88.83-6.93-46.66-1.74-95.02 14.85-139.17-81.22-0.26-161.61-26.75-228.49-72.54-32.22 26.02-60.31 57.03-83.61 91.23z" p-id="1944"></path><path d="M746.64 565.8c38.43-3.92 77.94 2.88 112.68 19.82 41.1 19.83 75.37 53.5 95.79 94.32 18.89 37.09 25.98 79.95 20.63 121.18-4.18 33.01-16.44 64.96-35.45 92.27-21.94 31.75-52.82 57.27-88.19 72.73-36.85 16.24-78.43 21.3-118.13 14.79-38.07-6.12-74.27-23.19-103.32-48.52-18.71-16.29-34.57-35.85-46.46-57.63-19.01-34.48-27.77-74.45-25.24-113.71 2.11-35.51 13.56-70.38 32.87-100.24 18.8-29.28 45.04-53.69 75.56-70.39 24.4-13.43 51.55-21.81 79.26-24.62m-100.03 99.77c-22.75 25.27-37.26 57.83-40.68 91.67 8.36 0.01 16.73 0.01 25.1 0 4.01 0.01 8.09-0.18 12 0.88 8.09 2.04 14.73 8.81 16.6 16.95 1.48 5.98 0.41 12.51-2.79 17.77-4.09 6.76-11.9 11.2-19.84 10.93-9.76-0.03-19.52-0.03-29.28-0.01 4.43 24.03 14.36 47.02 28.85 66.7 25.84 35.53 66.57 59.8 110.19 65.32-0.02-13.9-0.01-27.81-0.02-41.71 0.03-9.25 6.49-17.98 15.21-20.95 7.2-2.68 15.69-1.47 21.83 3.16 5.93 4.25 9.39 11.5 9.43 18.76 0.1 13.39 0.01 26.79 0.04 40.18 31.28-4.88 61-19.15 84.35-40.52 26.21-23.7 44.34-56.16 50.68-90.94-11.77-0.03-23.54 0-35.31-0.01-9.36-0.06-18.18-6.74-20.99-15.64-2.46-6.98-1.27-15.12 3.09-21.11 4.24-6.08 11.57-9.66 18.94-9.71 12.02-0.1 24.04 0 36.06-0.05-3.92-39.27-22.93-76.68-52.1-103.22-23.49-21.6-53.43-36.04-84.99-40.86 0.59 14.59 0.12 29.22 0.27 43.82 0.19 7.14-2.64 14.42-8.19 19.03-7.37 6.43-18.92 7.39-27.21 2.21-6.99-4.07-11.45-12.14-11.13-20.23 0.13-15.12-0.13-30.24 0.14-45.36-38.35 4.81-74.56 24.09-100.25 52.94z" p-id="1945"></path><path d="M759.52 730.77c10.38-2.21 21.56-1.12 31.1 3.65 13.79 6.58 23.81 20.35 25.86 35.49 2.18 14.27-2.7 29.43-12.89 39.67-8.89 9.31-21.82 14.49-34.66 14.18-11.95-0.16-23.7-5.19-32.17-13.59-7.31-7.19-12.16-16.85-13.47-27.02-1.91-13.13 2.11-27.01 10.81-37.04 6.51-7.69 15.58-13.14 25.42-15.34z" p-id="1946"></path></svg>